<svg width="98" height="78" viewBox="0 0 98 78" fill="none" xmlns="http://www.w3.org/2000/svg">
<g id="Frame 1307814375">
<path id="Vector" d="M30.8222 14.8406L30.8215 14.8414C29.8052 16.0684 28.655 17.1976 27.8307 17.9374M30.8222 14.8406L27.7973 17.9002M30.8222 14.8406C31.7813 13.6327 32.4747 12.4749 32.8217 11.2244C33.1688 9.97328 33.1683 8.63293 32.7455 7.06126C32.5654 6.23231 32.1272 5.68637 31.5144 5.40573C30.9035 5.12598 30.1264 5.11313 29.2729 5.33353C27.5658 5.77431 25.5332 7.15258 23.8538 9.25785C21.1044 12.6946 21.6354 16.2994 23.1289 17.9147M30.8222 14.8406L23.1656 17.8807M27.8307 17.9374L27.7973 17.9002M27.8307 17.9374C27.8307 17.9374 27.8308 17.9373 27.8308 17.9373L27.7973 17.9002M27.8307 17.9374C27.1357 18.5648 26.3309 18.9602 25.5124 18.9974C24.6922 19.0345 23.865 18.7115 23.1289 17.9147M27.7973 17.9002C26.4193 19.1442 24.6202 19.4552 23.1656 17.8807M23.1289 17.9147L23.1656 17.8807M23.1289 17.9147C23.1289 17.9147 23.1289 17.9147 23.1289 17.9147L23.1656 17.8807M44.5108 62.3645L44.5089 62.364C43.6076 62.0588 42.749 61.3765 42.0306 60.5713C41.3119 59.7656 40.73 58.833 40.3832 58.0211C39.9954 57.1348 40.0155 56.4052 40.0922 55.4901C40.0922 55.4899 40.0922 55.4898 40.0922 55.4896L40.142 55.4938L44.5108 62.3645ZM44.5108 62.3645C45.2392 62.5787 45.8127 62.6562 46.2811 62.4875C46.7527 62.3177 47.1049 61.9037 47.4038 61.1692M44.5108 62.3645L64.1488 18.9531C59.3269 28.4173 55.1173 38.4451 51.7879 48.5505C50.9269 51.1737 48.5913 58.2708 47.4038 61.1692M49.0946 74.7908L49.0954 74.7904C50.0148 74.3163 51.7079 73.1657 53.7331 71.6651C55.7571 70.1653 58.1099 68.318 60.3473 66.4525C62.5848 64.5869 64.7061 62.7038 66.2677 61.1321C67.0486 60.3461 67.6885 59.639 68.1328 59.0516C68.355 58.7579 68.5275 58.4952 68.6442 58.2683C68.7399 58.0823 68.7964 57.9236 68.814 57.7934C67.7804 58.3079 65.1747 59.5943 63.0216 59.9555L63.0213 59.9556C62.0475 60.1123 61.3333 60.0248 60.6998 59.7205C60.0685 59.4172 59.5223 58.9006 58.881 58.2104C58.181 57.4702 57.4275 56.5588 56.8486 55.6196C56.2705 54.6817 55.8627 53.7098 55.8627 52.8502C55.8627 51.5781 56.3963 49.3407 57.133 46.9916C57.8703 44.6405 58.8136 42.1698 59.6377 40.4276C60.7965 37.8599 62.4576 34.7046 64.1066 31.8923C65.7546 29.0817 67.3931 26.6091 68.5073 25.4089M49.0946 74.7908L58.5156 72.7355M49.0946 74.7908C48.9292 74.8797 48.7516 75.0117 48.6656 75.1651C48.6219 75.2432 48.6002 75.3298 48.62 75.4196C48.6397 75.5092 48.6989 75.5938 48.8009 75.6716L48.8019 75.6723C48.9437 75.7752 49.1523 75.8549 49.404 75.9114C49.6565 75.9681 49.9562 76.0024 50.2838 76.0122M49.0946 74.7908L50.2838 76.0122M68.5073 25.4089C68.6998 25.1841 68.8676 25.0276 69.0678 24.9285C69.2688 24.829 69.4974 24.7896 69.8077 24.7896C70.3482 24.7896 70.9011 25.0227 71.4368 25.3888C71.9728 25.7552 72.4957 26.2578 72.9769 26.8039C73.9389 27.8955 74.7397 29.1664 75.1522 29.8873C75.3798 30.2522 75.4514 30.728 75.4047 31.2817C75.358 31.8362 75.1922 32.4739 74.9394 33.1669C74.4339 34.553 73.5773 36.1689 72.614 37.7988C71.7048 39.337 70.6993 40.8896 69.8018 42.2755C69.7481 42.3585 69.6948 42.4408 69.6419 42.5225C68.7043 43.9707 67.9034 45.217 67.479 46.05L67.479 46.05C67.3481 46.3067 67.2112 46.5692 67.0734 46.8337C66.6357 47.6733 66.1876 48.533 65.8828 49.2921C65.6824 49.7913 65.5458 50.2426 65.5142 50.6129C65.4825 50.9834 65.5564 51.2614 65.7622 51.4308C65.9465 51.5711 66.1227 51.634 66.2964 51.6363C66.4707 51.6386 66.648 51.5797 66.834 51.4664C68.208 50.5942 69.5446 49.4695 70.6906 48.3056C73.5001 45.3745 77.8611 39.5083 82.2806 31.2307L82.2811 31.2299C82.4821 30.8701 82.9285 30.0804 83.4593 29.3657C83.7246 29.0084 84.0122 28.6683 84.302 28.4096C84.5904 28.1522 84.8873 27.9698 85.1711 27.9389L85.1739 27.9386C85.5598 27.9191 85.8349 28.1786 86.0698 28.4001C86.083 28.4125 86.0961 28.4249 86.1091 28.437C86.8754 29.0695 87.8385 29.9308 88.6201 30.7831C89.0111 31.2094 89.3576 31.6345 89.6115 32.0284C89.8646 32.4209 90.0295 32.7881 90.0494 33.0977L90.0496 33.0994C90.0545 33.2658 90.02 33.5318 89.9542 33.8757C89.8881 34.2208 89.7898 34.6483 89.6652 35.1396C89.4162 36.1223 89.0618 37.3623 88.6502 38.7137C86.5047 45.7761 83.0946 51.9833 78.5728 57.1401L78.5727 57.1403C72.8447 63.6192 65.528 68.482 58.5418 72.7781M68.5073 25.4089C68.507 25.4092 68.5068 25.4094 68.5066 25.4097L68.5446 25.4422L68.5079 25.4082C68.5077 25.4084 68.5075 25.4087 68.5073 25.4089ZM58.5418 72.7781L58.5156 72.7355M58.5418 72.7781C58.5419 72.7781 58.5419 72.778 58.5419 72.778L58.5156 72.7355M58.5418 72.7781C58.0526 73.0801 56.9607 73.7124 55.7589 74.3421C54.5579 74.9714 53.2435 75.6002 52.3106 75.8932M58.5156 72.7355C57.5395 73.3381 54.1519 75.2625 52.2954 75.8456M52.3106 75.8932L52.2954 75.8456M52.3106 75.8932C51.6808 76.0943 51.0676 76.0582 50.4358 76.021C50.3853 76.018 50.3346 76.0151 50.2838 76.0122M52.3106 75.8932C52.3105 75.8933 52.3105 75.8933 52.3104 75.8933L52.2954 75.8456M52.2954 75.8456L50.2838 76.0122M63.0133 59.9062C65.1774 59.5431 67.804 58.2404 68.8193 57.7349L63.0133 59.9062ZM63.0133 59.9062C61.0803 60.2173 60.1999 59.5564 58.9176 58.1762L63.0133 59.9062ZM50.2838 76.0122C50.2839 76.0122 50.2841 76.0122 50.2843 76.0122L50.2858 75.9622L50.283 76.0121C50.2832 76.0122 50.2835 76.0122 50.2838 76.0122ZM47.4038 61.1692L47.3575 61.1503L47.4038 61.1691C47.4038 61.1692 47.4038 61.1692 47.4038 61.1692ZM10.6583 41.153C10.2429 42.4603 9.86507 43.6318 9.52339 44.691C7.48928 50.9971 6.73763 53.3274 7.00058 56.6831C7.0777 57.8475 7.46775 59.1003 8.15043 60.0925C8.83345 61.0853 9.81193 61.8203 11.0648 61.9387C11.9845 62.036 13.1391 62.0562 13.7787 61.9184C14.0155 61.8683 14.1692 61.7867 14.2879 61.6608C14.4044 61.5374 14.484 61.3744 14.579 61.1718C14.9347 60.4297 15.3949 59.1342 15.7873 57.9072C16.1792 56.6813 16.5054 55.5177 16.5925 55.0372C18.3452 47.2986 20.5126 41.4235 22.3531 36.4344C22.8832 34.9974 23.3862 33.634 23.8443 32.3206C24.0553 31.7362 24.5772 30.1752 25.001 28.6091C25.2129 27.826 25.4006 27.0407 25.5125 26.375C25.5685 26.0422 25.6057 25.7385 25.6173 25.4794C25.6289 25.2218 25.6156 25.0044 25.5679 24.8457C25.43 24.3068 24.9526 23.6721 24.3728 23.1761C23.7932 22.6803 23.0973 22.311 22.5142 22.321C22.5142 22.321 22.5141 22.321 22.514 22.321L10.6583 41.153ZM10.6583 41.153C11.6735 37.7681 13.7602 32.6158 14.3346 31.2545L10.6583 41.153ZM28.3249 62.0354L28.3258 62.0356C28.7295 62.0956 29.0498 62.0255 29.3467 61.8C29.64 61.5772 29.9073 61.205 30.2139 60.6698L30.2146 60.6686C31.2504 58.7459 32.1688 55.4598 32.661 53.6988C32.6978 53.567 32.7323 53.4437 32.7642 53.3302L32.7643 53.3298C34.6868 46.2629 38.1583 38.0057 41.3087 30.5122C42.3593 28.0131 43.3743 25.5989 44.2842 23.3421L44.2843 23.3418C45.0682 21.3611 47.8042 15.4926 48.6651 13.8218C49.7781 11.7166 50.013 10.3236 49.6645 8.90775L49.6645 8.90763C49.202 7.04862 48.0085 5.31084 46.3207 3.65512L46.3204 3.65481C45.9456 3.29367 45.6166 3.05693 45.2482 2.97857C44.8785 2.89992 44.4788 2.98271 43.9667 3.23785L43.9667 3.23785L43.9661 3.23816C43.2755 3.59378 42.4862 4.43577 41.6858 5.50753C40.8838 6.58133 40.0657 7.89291 39.3187 9.19613C37.8258 11.8009 36.6145 14.3776 36.3828 14.9653C36.323 15.1031 36.2183 15.3393 36.0746 15.6636C35.0198 18.0431 31.8639 25.1629 28.9395 32.9034C27.2778 37.302 25.6904 41.9021 24.6057 45.9476C24.0634 47.9703 23.6465 49.8551 23.4089 51.5073C23.1715 53.1585 23.1127 54.5804 23.2884 55.6762C23.5657 57.5699 23.8585 59.0003 24.567 60.0365C25.2784 61.0771 26.4033 61.7134 28.3249 62.0354Z" fill="#ED1B24" stroke="white" stroke-width="0.1"/>
</g>
</svg>
