<svg width="120" height="98" viewBox="0 0 120 98" fill="none" xmlns="http://www.w3.org/2000/svg">
<path id="Vector" d="M23.372 19.9769C21.2413 17.8371 20.4665 13.0356 24.4235 8.4428C29.2659 2.80624 36.1283 1.08396 37.1522 5.46795C38.3697 9.66928 37.1522 12.618 34.3851 15.8538C32.9185 17.4978 31.2582 19.0114 30.0684 20.003C28.0761 21.6731 25.475 22.0906 23.372 19.9769ZM30.8432 79.1869C25.309 78.3257 24.4235 75.7945 23.621 70.7059C21.601 59.0153 41.1091 19.1679 42.548 16.0887C43.2121 14.523 49.5488 2.25824 53.4781 0.379391C54.9447 -0.299084 55.7195 -0.038132 56.7986 0.92739C59.2337 3.14548 60.9493 5.46795 61.6134 7.947C62.1115 9.82585 61.7794 11.6786 60.1745 14.4969C58.9293 16.7411 54.9723 24.6218 53.8378 27.2835C48.5803 39.3917 40.8878 54.8922 37.1798 67.5484C36.5157 69.7404 35.1045 74.6202 33.4996 77.3863C32.6141 78.8215 31.9777 79.3434 30.8432 79.1869ZM54.2529 79.6305C51.6795 78.8215 49.3274 76.0033 48.3313 73.8373C47.7779 72.6631 47.8055 71.6975 47.9162 70.4711C48.2759 65.1738 50.3789 55.2054 55.166 43.0711C60.8109 28.8492 68.4758 14.1055 76.03 3.98053C77.5519 1.9712 79.2122 2.4931 80.9831 3.71958C83.5012 5.46795 85.2168 7.08585 85.9363 8.78204C87.1261 11.6786 85.1891 16.6106 82.5604 21.386C75.5873 34.0944 69.4996 47.5595 64.6849 61.129C63.4397 64.6518 60.0638 74.1766 58.3482 78.0648C57.4904 80.0219 56.3559 80.2046 54.2529 79.6305ZM60.8939 96.4358C66.2345 93.8784 89.4505 76.7861 89.4505 73.4459C88.0393 74.0983 84.1653 75.8989 80.9831 76.3947C78.1884 76.8122 76.9155 75.925 75.0615 74.0722C73.0415 72.089 70.7172 69.1924 70.7172 66.9221C70.7172 63.5297 73.7887 54.9444 76.1684 50.2734C79.5166 43.3843 85.7702 33.3376 88.9801 30.1279C89.5335 29.5277 89.9209 29.319 90.8064 29.319C93.8502 29.319 97.2814 34.1988 98.4713 36.1298C101.017 39.9136 89.8379 53.2743 87.3752 57.7627C85.7979 60.6332 83.6119 64.0778 84.9124 65.0694C85.4659 65.4608 85.9916 65.4347 86.545 65.1216C88.5373 63.9473 90.4743 62.4338 92.1346 60.868C96.2022 56.9277 102.511 49.0469 108.903 37.9304C109.484 36.9648 111.477 33.7029 113.026 33.5464C113.58 33.5203 113.967 33.8856 114.327 34.1988C116.54 35.8949 119.889 38.8176 119.999 40.4094C120.027 41.2706 119.169 44.2976 117.979 47.9248C114.88 57.3974 109.955 65.7217 103.424 72.637C95.1507 81.3267 84.5804 87.8505 74.4804 93.6175C73.0692 94.4265 68.1714 97.0099 65.4874 97.7927C64.5189 98.0798 63.578 98.0015 62.5819 97.9493C61.6411 97.9232 60.8663 97.7666 60.4789 97.5057C59.9255 97.1143 60.4235 96.6706 60.8939 96.4358ZM0.0729389 72.0629C-0.369798 66.8177 1.17978 63.4515 5.35811 51.2389C6.82468 46.6983 9.84083 39.7831 10.671 37.9565C12.6079 33.5203 16.3159 26.031 22.4312 26.0049C24.0638 25.9788 26.3881 27.9359 26.7755 29.3451C27.3013 30.963 24.8939 37.7738 24.2851 39.3395C21.3243 47.2203 17.063 56.458 13.7978 69.8448C13.5487 71.1234 11.9162 76.0815 10.8923 78.0648C10.6156 78.6128 10.4496 78.8998 9.78548 79.0303C8.87234 79.213 7.21207 79.1869 5.88386 79.0564C2.3143 78.7432 0.294308 75.1682 0.0729389 72.0629Z" fill="#ED1B24"/>
</svg>
